<?xml version="1.0" encoding="utf-8"?>
<!-- Generator: Adobe Illustrator 16.0.0, SVG Export Plug-In . SVG Version: 6.00 Build 0)  -->
<!DOCTYPE svg PUBLIC "-//W3C//DTD SVG 1.1//EN" "http://www.w3.org/Graphics/SVG/1.1/DTD/svg11.dtd">
<svg version="1.1" id="Capa_1" xmlns="http://www.w3.org/2000/svg" xmlns:xlink="http://www.w3.org/1999/xlink" x="0px" y="0px"
	 width="100px" height="97.402px" viewBox="0 0 100 97.402" enable-background="new 0 0 100 97.402" xml:space="preserve">
<g>
	<path fill-rule="evenodd" clip-rule="evenodd" fill="#FFFFFF" d="M75.657,93.844c-2.31,1.205-4.504,2.351-6.819,3.559
		c-1.489-2.467-2.971-4.899-4.431-7.344c-3.998-6.691-7.98-13.393-11.985-20.08c-1.404-2.344-3.532-2.323-4.925,0.025
		c-5.389,9.083-10.772,18.17-16.23,27.377c-2.191-1.067-4.364-2.125-6.717-3.271c8.419-14.318,16.798-28.569,25.271-42.982
		C58.474,65.434,67.034,79.586,75.657,93.844z"/>
	<path fill-rule="evenodd" clip-rule="evenodd" fill="#FFFFFF" d="M0,50.764c0-2.525,0-4.91,0-7.405c15.14,0,30.297,0,45.645,0
		c-8.97,15.618-17.873,31.119-26.834,46.719c-1.933-1.813-3.774-3.539-5.699-5.344c1.59-2.777,3.157-5.529,4.739-8.272
		c4.058-7.033,8.127-14.061,12.183-21.095c1.686-2.924,0.719-4.594-2.676-4.6c-8.55-0.012-17.1-0.004-25.649-0.004
		C1.163,50.764,0.619,50.764,0,50.764z"/>
	<path fill-rule="evenodd" clip-rule="evenodd" fill="#FFFFFF" d="M53.767,43.272c15.536,0,30.852,0,46.233,0
		c0,2.411,0,4.746,0,7.233c-0.601,0-1.142,0-1.683,0c-8.362,0-16.725-0.001-25.087,0c-0.369,0-0.742-0.029-1.108,0.008
		c-2.742,0.274-3.813,2.365-2.438,4.732c5.492,9.45,10.968,18.911,16.498,28.338c0.507,0.863,0.452,1.309-0.282,1.951
		c-1.527,1.336-2.961,2.778-4.599,4.334C72.136,74.358,63.007,58.91,53.767,43.272z"/>
	<path fill-rule="evenodd" clip-rule="evenodd" fill="#FFFFFF" d="M39.388,10.702C39.396,4.723,44.16-0.02,50.14,0
		c5.927,0.019,10.66,4.838,10.644,10.836c-0.016,5.966-4.793,10.706-10.777,10.693C44.052,21.517,39.379,16.751,39.388,10.702z"/>
	<path fill-rule="evenodd" clip-rule="evenodd" fill="#FFFFFF" d="M64.31,34.539c0-3.018,0-6.037,0-9.14c2.09,0,4.044,0,6.052,0
		c0.027,0.308,0.064,0.529,0.064,0.751c0.003,4.384,0.002,8.768,0.002,13.36c-2.768,0-5.475,0.031-8.18-0.037
		c-0.358-0.009-0.757-0.475-1.048-0.806c-2.315-2.632-4.612-5.281-6.906-7.932c-0.144-0.166-0.221-0.391-0.329-0.588
		c-0.108,0.057-0.218,0.114-0.327,0.171c0,3.01,0,6.02,0,9.114c-2.11,0-4.07,0-6.091,0c0-4.68,0-9.284,0-14.116
		c2.607,0,5.216-0.033,7.822,0.039c0.354,0.01,0.732,0.513,1.036,0.847c2.327,2.558,4.641,5.128,6.948,7.703
		c0.232,0.259,0.401,0.573,0.6,0.861C64.072,34.691,64.191,34.615,64.31,34.539z"/>
	<path fill-rule="evenodd" clip-rule="evenodd" fill="#FFFFFF" d="M23.873,29.457c-1.788,0-3.489,0.008-5.19-0.01
		c-0.203-0.002-0.482-0.087-0.595-0.234c-1.49-1.956-3.522-1.39-5.452-1.141c-0.357,0.046-0.655,0.541-0.981,0.828
		c0.319,0.292,0.598,0.759,0.966,0.846c2.017,0.476,4.067,0.807,6.083,1.291c1.379,0.331,2.807,0.656,4.058,1.291
		c2.517,1.277,2.636,4.397,0.164,5.729c-1.462,0.787-3.193,1.362-4.837,1.458c-3.016,0.175-6.076,0.114-9.081-0.202
		c-2.967-0.312-4.305-1.904-4.221-4.371c1.926,0,3.856,0,5.808,0c1.129,2.32,5.617,2.883,7.495,0.848
		c-0.486-1.182-1.663-1.173-2.635-1.396c-2.291-0.524-4.61-0.92-6.908-1.418c-0.621-0.135-1.24-0.386-1.797-0.698
		c-2.342-1.313-2.497-4.253-0.179-5.597c1.2-0.696,2.649-1.119,4.035-1.308c3.578-0.488,7.181-0.597,10.675,0.579
		C23.156,26.58,23.846,27.545,23.873,29.457z"/>
	<path fill-rule="evenodd" clip-rule="evenodd" fill="#FFFFFF" d="M97.087,39.521c-2.294,0-4.403,0.073-6.501-0.061
		c-0.436-0.028-0.944-0.764-1.205-1.281c-0.465-0.92-1.016-1.351-2.13-1.301c-2.349,0.105-4.707,0.093-7.057,0.005
		c-1.072-0.041-1.797,0.246-2.166,1.249c-0.434,1.174-1.241,1.514-2.465,1.416c-1.455-0.117-2.928-0.027-4.685-0.027
		c0.507-0.763,0.861-1.316,1.234-1.857c2.617-3.793,5.257-7.572,7.842-11.387c0.498-0.734,1.026-1.038,1.922-0.989
		c1.973,0.108,4.271-0.503,5.834,0.321c1.509,0.795,2.274,3.017,3.344,4.626c1.86,2.802,3.704,5.615,5.551,8.426
		C96.746,38.874,96.856,39.107,97.087,39.521z M83.886,28.646c-1.127,1.802-2.133,3.411-3.204,5.124c2.149,0,4.108,0,6.201,0
		C85.87,32.04,84.947,30.461,83.886,28.646z"/>
	<path fill-rule="evenodd" clip-rule="evenodd" fill="#FFFFFF" d="M44.309,25.417c0,0.945,0,1.843,0,2.859
		c-3.509,0-6.956,0-10.506,0c0,0.819,0,1.523,0,2.386c3.23,0,6.44,0,9.72,0c0,1.014,0,1.874,0,2.944c-3.229,0-6.473,0-9.767,0
		c0,1.024,0,1.842,0,2.812c3.59,0,7.171,0,10.861,0c0,1.083,0,2.017,0,3.028c-5.707,0-11.377,0-17.164,0c0-4.648,0-9.284,0-14.03
		C33.036,25.417,38.639,25.417,44.309,25.417z"/>
</g>
</svg>
